<?xml version="1.0" encoding="UTF-8" standalone="no"?>
<!-- Created with Inkscape (http://www.inkscape.org/) -->

<svg
   width="24mm"
   height="24mm"
   viewBox="0 0 24.000001 24"
   version="1.1"
   id="svg5"
   xmlns="http://www.w3.org/2000/svg"
   xmlns:svg="http://www.w3.org/2000/svg">
  <defs
     id="defs2" />
  <g
     id="layer1"
     transform="translate(-42.838212,-68.70485)">
    <path
       id="path845"
       style="fill:#000000;stroke-width:0.0254"
       d="m 54.838212,68.70485 a 11.999989,11.999988 0 0 0 -12,12 11.999989,11.999988 0 0 0 12,12 11.999989,11.999988 0 0 0 12,-12 11.999989,11.999988 0 0 0 -12,-12 z m -6.976956,6.463104 h 3.83996 v 1.919979 h -3.83996 z m 5.056976,0.04763 h 3.839961 v 1.920079 h -3.839961 z m 5.056977,0.03016 h 3.840059 v 1.919981 h -3.840059 z m -10.113953,2.973484 h 3.83996 v 1.919981 h -3.83996 z m 5.056976,0.04763 h 3.839961 v 1.919979 h -3.839961 z m 5.056977,0.03006 h 3.840059 v 1.919979 h -3.840059 z m -10.113953,2.973484 h 3.83996 v 1.920079 h -3.83996 z m 5.056976,0.04772 h 3.839961 v 1.919981 h -3.839961 z m 5.056977,0.03006 h 3.840059 v 1.919981 h -3.840059 z m -5.056977,2.973484 h 3.839961 v 1.919981 h -3.839961 z" />
  </g>
</svg>
